Coordinates
version=1
nRows=11
nColumns=42
inDegrees=yes

Units are S.I. units (second, meters, Newtons, ...)
If the header above contains a line with 'inDegrees', this indicates whether rotational values are in degrees (yes) or radians (no).

endheader
time	pelvis_tilt	pelvis_list	pelvis_rotation	pelvis_tx	pelvis_ty	pelvis_tz	hip_flexion_r	hip_adduction_r	hip_rotation_r	knee_angle_r	knee_adduction_r	knee_angle_r_beta	ankle_angle_r	subtalar_angle_r	mtp_angle_r	hip_flexion_l	hip_adduction_l	hip_rotation_l	knee_angle_l	knee_adduction_l	knee_angle_l_beta	ankle_angle_l	subtalar_angle_l	mtp_angle_l	lumbar_extension	lumbar_bending	lumbar_rotation	arm_flex_r	arm_add_r	arm_rot_r	elbow_flex_r	pro_sup_r	wrist_flex_r	wrist_dev_r	arm_flex_l	arm_add_l	arm_rot_l	elbow_flex_l	pro_sup_l	wrist_flex_l	wrist_dev_l
      1.33000000	     -3.33889952	      0.07960665	     -1.04107857	      0.84696873	      0.97259264	     -0.22726154	     24.09785559	      0.72787644	     -5.78187506	     59.71677941	     -3.28395700	      1.04225442	      0.53042816	    -18.37244712	     -7.52070634	     11.86150676	      3.72028352	     -4.61054729	     19.76934093	     -2.90365031	      0.34504009	      7.99449434	     -9.04256507	     -7.52070634	     -8.19547156	     -0.69819354	      1.00181963	     -7.46281286	     -7.81669460	     -2.58635925	     28.65298380	     90.00000001	      0.00000000	      0.00000000	      3.64444996	     -8.64681102	     -2.78127177	     27.60405828	     90.00000001	      0.00000000	      0.00000000
      1.34000000	     -3.42328549	     -0.04006636	     -0.80228078	      0.86030055	      0.97289710	     -0.22769053	     25.32256991	      0.72619511	     -5.87290313	     57.88667292	     -2.99326449	      1.01031304	      0.92796752	    -18.22335069	     -7.52040221	     10.72817545	      3.64217071	     -4.64419015	     19.06166561	     -2.91864989	      0.33268883	      8.42630726	     -8.60753797	     -7.52040221	     -8.10887721	     -0.44494394	      0.75714336	     -7.95582775	     -7.91753642	     -2.63963312	     28.61629286	     90.00000001	      0.00000000	      0.00000000	      4.53565711	     -8.60216006	     -2.52521477	     28.30265656	     90.00000001	      0.00000000	      0.00000000
      1.35000000	     -3.42289517	     -0.17099665	     -0.54983517	      0.87368746	      0.97295002	     -0.22802638	     26.31977238	      0.74270089	     -5.89810629	     55.76693805	     -2.65370778	      0.97331668	      1.31729294	    -18.18190352	     -7.52008410	      9.47592707	      3.52608325	     -4.46346034	     18.33868376	     -2.83441047	      0.32007041	      9.03435144	     -8.09403092	     -7.52008410	     -8.10819908	     -0.19185059	      0.50162860	     -8.43942379	     -8.00351517	     -2.74306375	     28.67851468	     90.00000001	      0.00000000	      0.00000000	      5.37498823	     -8.60016451	     -2.05029257	     29.18333513	     90.00000001	      0.00000000	      0.00000000
      1.36000000	     -3.23155039	     -0.26627810	     -0.30102346	      0.88714618	      0.97281122	     -0.22823695	     26.98782586	      0.66925986	     -5.86785923	     53.40074622	     -2.19261748	      0.93201884	      1.55117980	    -18.18866449	     -7.51777343	      8.05159721	      3.38971366	     -4.32289390	     17.70489357	     -2.67983955	      0.30900869	      9.90702788	     -7.35365153	     -7.51777343	     -8.34865003	      0.00684764	      0.36371138	     -8.97643021	     -7.94262897	     -3.60921205	     29.08184398	     90.00000001	      0.00000000	      0.00000000	      5.62406662	     -9.78205670	      3.42798017	     31.48650669	     90.00000001	      0.00000000	      0.00000000
      1.37000000	     -3.23392040	     -0.33344987	     -0.09480690	      0.90052350	      0.97214859	     -0.22843334	     27.78963354	      0.61137289	     -5.90198163	     50.80969602	     -1.89541894	      0.88679649	      1.79962566	    -18.10278938	     -7.51733018	      6.88911314	      3.29367024	     -4.16182155	     17.16021661	     -2.55949789	      0.29950228	     10.57385211	     -6.92623705	     -7.51733018	     -8.36016064	      0.18040560	      0.14734267	     -9.36961481	     -7.99035944	     -3.72153429	     29.18995228	     90.00000001	      0.00000000	      0.00000000	      6.46339657	     -9.84748567	      3.88555321	     32.43296876	     90.00000001	      0.00000000	      0.00000000
      1.38000000	     -3.25280050	     -0.37042182	      0.07647147	      0.91391310	      0.97112834	     -0.22854489	     28.51883963	      0.52320241	     -5.97199300	     48.01471992	     -1.63872972	      0.83801495	      1.99450725	    -17.93300464	     -7.51690804	      5.77948152	      3.22355796	     -4.06567808	     16.67613657	     -2.46836664	      0.29105349	     11.27260277	     -6.53843251	     -7.51690804	     -8.35308598	      0.31054989	      0.00134742	     -9.76999592	     -8.05090326	     -3.89126029	     29.33004032	     90.00000001	      0.00000000	      0.00000000	      7.23943936	     -9.98666612	      4.66267202	     33.57261915	     90.00000001	      0.00000000	      0.00000000
      1.39000000	     -3.26559867	     -0.33028910	      0.24231811	      0.92732344	      0.96974665	     -0.22867951	     29.15983854	      0.34077265	     -6.03483585	     45.07008404	     -1.39543298	      0.78662136	      2.04196519	    -17.76537858	     -7.51524005	      4.72765033	      3.27190968	     -4.09421410	     16.31694672	     -2.49391721	      0.28478444	     11.98051538	     -6.11544454	     -7.51524005	     -8.35381531	      0.37375089	     -0.04997419	    -10.19120850	     -7.95780778	     -4.59382662	     29.55837003	     90.00000001	      0.00000000	      0.00000000	      7.76866860	    -10.97051061	      8.54764599	     35.54055377	     90.00000001	      0.00000000	      0.00000000
      1.40000000	     -3.28522419	     -0.29665037	      0.35586361	      0.94076953	      0.96814355	     -0.22871392	     29.68310034	      0.20450861	     -6.14425753	     41.86449362	     -1.23759138	      0.73067325	      2.11330101	    -17.38899296	     -7.51478182	      3.68670834	      3.27922562	     -4.00406124	     15.98736268	     -2.40705053	      0.27903212	     12.72969271	     -5.86651675	     -7.51478182	     -8.33854912	      0.43454603	     -0.14039187	    -10.49497645	     -8.02068880	     -4.72626515	     29.60676902	     90.00000001	      0.00000000	      0.00000000	      8.60937127	    -11.05271588	      9.04982187	     36.48936255	     90.00000001	      0.00000000	      0.00000000
      1.41000000	     -3.24683324	     -0.22733650	      0.48973684	      0.95433578	      0.96633415	     -0.22869803	     30.03864222	      0.01352888	     -6.28407468	     38.52310438	     -1.07247915	      0.67235501	      2.09745836	    -16.89158608	     -7.51405359	      2.57980215	      3.30272161	     -3.99941402	     15.65596820	     -2.28960946	      0.27324819	     13.47957761	     -5.66862363	     -7.51405359	     -8.38074457	      0.44217920	     -0.22034907	    -10.82876226	     -7.99096118	     -5.04518700	     29.65584582	     90.00000001	      0.00000000	      0.00000000	      9.30001301	    -11.41834714	     10.53458269	     37.92953183	     90.00000001	      0.00000000	      0.00000000
      1.42000000	     -3.38510674	     -0.11594522	      0.56569378	      0.96773240	      0.96410465	     -0.22862779	     30.53980498	     -0.16718082	     -6.48779211	     35.07910728	     -1.04681362	      0.61224592	      2.12084348	    -15.99208984	     -7.51338635	      1.75386484	      3.43856844	     -3.95783182	     15.49926916	     -2.31512463	      0.27051328	     14.08790935	     -5.54004365	     -7.51338635	     -8.25614523	      0.40825069	     -0.22779042	    -11.05851558	     -7.99102260	     -5.33475208	     29.64149668	     90.00000001	      0.00000000	      0.00000000	     10.11382510	    -11.73961079	     11.79121141	     39.00303624	     90.00000001	      0.00000000	      0.00000000
      1.43000000	     -3.59816127	      0.00020238	      0.65344683	      0.98115855	      0.96161909	     -0.22857397	     31.02269351	     -0.37636095	     -6.70347944	     31.54498110	     -0.98898776	      0.55056378	      2.08861343	    -14.62484445	     -7.51311879	      1.04978923	      3.56637779	     -3.99802643	     15.42335679	     -2.30435015	      0.26918836	     14.69765651	     -5.44451224	     -7.51311879	     -8.02624394	      0.37377124	     -0.28620456	    -11.26766942	     -8.03759730	     -5.43840345	     29.64831547	     90.00000001	      0.00000000	      0.00000000	     10.94555103	    -11.75821099	     12.19685825	     39.80647492	     90.00000001	      0.00000000	      0.00000000
